PathFileType	4	(X/Y/Z)	28_2_40_p0_0-348.trc
DataRate	CameraRate	NumFrames	NumMarkers	Units	OrigDataRate	OrigDataStartFrame	OrigNumFrames
60.0	60.0	6	27	m	60.0	43	349
Frame#	Time	RHip			RKnee			RAnkle			RBigToe			RSmallToe			RHeel			LHip			LKnee			LAnkle			LBigToe			LSmallToe			LHeel			Neck			Head			Nose			RShoulder			RElbow			RWrist			RThumb			RIndex			RPinky			LShoulder			LElbow			LWrist			LThumb			LIndex			LPinky			
		X1	Y1	Z1	X2	Y2	Z2	X3	Y3	Z3	X4	Y4	Z4	X5	Y5	Z5	X6	Y6	Z6	X7	Y7	Z7	X8	Y8	Z8	X9	Y9	Z9	X10	Y10	Z10	X11	Y11	Z11	X12	Y12	Z12	X13	Y13	Z13	X14	Y14	Z14	X15	Y15	Z15	X16	Y16	Z16	X17	Y17	Z17	X18	Y18	Z18	X19	Y19	Z19	X20	Y20	Z20	X21	Y21	Z21	X22	Y22	Z22	X23	Y23	Z23	X24	Y24	Z24	X25	Y25	Z25	X26	Y26	Z26	X27	Y27	Z27	
43	0.7166666666666667	0.21621923706794766	0.7208380274284492	1.0384810712714112	0.20594831184225626	0.9216851923978722	1.4105089313432786	0.2176860948670432	1.0349284169430313	1.7439029853623014	0.1815683078598213	0.9193808099104062	1.8180841131854681	0.23602831072231337	0.9320652691151817	1.8106256658626716	0.20304040583116592	1.1379330881109355	1.7818615020179154	0.021254748479147843	0.7110459970998566	1.059790797203731	0.022157168902949963	0.9226031148340985	1.4019237550693235	0.03698047632213084	1.0817079584848457	1.7586043000226534	0.021762035162431907	0.8881300572826754	1.8108036201971092	-0.025111357536909552	0.9471054292247478	1.8048309412171142	0.05452143130260604	1.1338690790266357	1.7794781923280507	0.0895106082840379	0.520491964637724	0.5078359733774406	0.08219332900491295	0.4009505556834814	0.29570928985176276	0.08982049751425404	0.3937538816029506	0.41605598571724106	0.22929307916742808	0.5449613579427358	0.5687777202802901	0.28294388089338435	0.6288633557957016	0.8098588389839677	0.16425629208386638	0.5441657062843372	1.0141289422200606	0.10026795249783538	0.5750021090810751	1.102790420089607	0.09434422982831947	0.5776518750549653	1.1065097624117797	0.10491984918666508	0.5539745418650855	1.1069687324862196	-0.05869425217161025	0.5763103062202628	0.5715461763690967	-0.0762639634566375	0.5814047286712313	0.8267795493257998	0.06246068284145674	0.5329302393724983	1.020005036944356	0.14310679183607702	0.5237147073503409	1.060611265400564	0.14926662519721837	0.5490795532728219	1.1034094385497943	0.10587819405806043	0.5829990010678743	1.1102687043276986
44	0.7333333333333333	0.21716024108631063	0.7235135819332461	1.042421709636416	0.20592924773820673	0.9217792846810201	1.410555334941361	0.2143572121226784	1.0527100439847796	1.7474157432156416	0.1815885796245985	0.9194327704231551	1.8180591340154868	0.236086050836824	0.9323439936889684	1.8106525317221007	0.202990620038161	1.1379155752305086	1.7818455673885432	0.021202507670745448	0.7110454786684249	1.0598718127943105	0.022059044566913263	0.9225642281636439	1.401995322344347	0.036900371872395935	1.0819530818052576	1.7586792161420017	0.02173115992248886	0.8881563318282406	1.8107951319659885	-0.02516081733758505	0.9469596807595021	1.8048174951628682	0.05450339321966535	1.1338821467655102	1.7795038289351306	0.08904345440098295	0.5184053240599696	0.5044643919660059	0.08215663096366102	0.4010582888440459	0.295708707173059	0.08594863795271869	0.39250003460071353	0.4165373388367528	0.2293104978446337	0.5449942987363529	0.5687762574638424	0.2829975465077175	0.6290647978316076	0.8099508660035348	0.16423620932745953	0.544080342844307	1.0141396192235081	0.10025657821177184	0.5753092498569113	1.1027699962266317	0.09431211434802478	0.5779015861279565	1.1065187428076286	0.1052642506064743	0.5544118649554978	1.1100438257910628	-0.055627454676199575	0.588556935047433	0.5690530661314692	-0.07635672049462267	0.5813600549833753	0.8267500245455868	0.06247999526859937	0.5329396965319927	1.0199966762233241	0.1431122745074985	0.5238132229348177	1.0604940953292423	0.1492234213568183	0.5492373681828576	1.1033265972685686	0.10566195410676793	0.5828166071463912	1.11020834439885
45	0.75	0.21623733579853477	0.7207778211351973	1.038458960895124	0.20994636699177524	0.9228090325773899	1.410419044345681	0.21437550574114358	1.0528034497634797	1.7474210221548947	0.1815799812266138	0.9196106701848757	1.8181151598418934	0.2360532891408855	0.9325915897958613	1.810680588877651	0.20303734150177669	1.1381108273351408	1.781920946214928	0.021333366164651556	0.7110675817988321	1.0596191121662701	0.02208381936541992	0.9226534947367825	1.401950879359305	0.0368857192209746	1.0818293790569125	1.75871307037696	0.021737166046554443	0.8880668847681508	1.8106960000101353	-0.02512722950218044	0.9467873109604156	1.804776994108526	0.05461752434714993	1.1340295079580578	1.7794739612695825	0.09346903602539271	0.5209047849696249	0.5074959804413216	0.08179374998447317	0.39913933247774686	0.2928368159328085	0.08594143380857852	0.3925520828711362	0.4165024081375134	0.22930408747972453	0.5448603794888015	0.568787689796766	0.2786380564094654	0.6164650214429717	0.8115099079690917	0.16424695401487924	0.5441074240819493	1.014129179955367	0.09979384569667474	0.5751249474627967	1.1028295562251065	0.09415305831197622	0.5777245575434456	1.106507215866713	0.10526278917277955	0.5543300360085753	1.1100780532311367	-0.05805963429774504	0.5774882743238867	0.5712394964659477	-0.07624423311101282	0.5812286609223135	0.8267838033166927	0.06249298434985137	0.5328687941893119	1.0199787471911572	0.14309622275979408	0.5237318097626961	1.0605033098978867	0.14956992536557945	0.5375518132543902	1.1033076724477737	0.10569893036932224	0.5828906799609042	1.1102151434691219
46	0.7666666666666667	0.213039534480805	0.7364493555693736	1.0383127376033383	0.2107401075020719	0.936650198391862	1.4113807475078535	0.21435395880917182	1.0528204271216328	1.7474251781587609	0.18156399887333685	0.9193339779893218	1.8180042411353239	0.2359924810246724	0.9320732102308446	1.8106271314616318	0.20301602602383434	1.1380347394890686	1.7819318528203243	0.02048797473197157	0.7085432330957809	1.0551828037148208	0.022118665681038294	0.9227215252410522	1.4018618819774318	0.03690332162073444	1.0817968537882976	1.75867795492821	0.021704949258712653	0.8881606659848831	1.810719845910043	-0.02523575286764378	0.9469289478429584	1.8048200617744388	0.0582999261216392	1.150340546226641	1.7824222720437644	0.09317712268168438	0.5178940886190946	0.5009038557957054	0.0817923427931771	0.3992386924397209	0.2927965224764971	0.08596745730605786	0.392611620786304	0.41638536555902805	0.2292997597960184	0.5449015622492318	0.568693088454298	0.28304018344281917	0.6288160028204609	0.8098422861229977	0.16430353904406775	0.5441111567779616	1.0141110380273108	0.09974596702465781	0.5740279357830336	1.1027412033260022	0.09401875523375039	0.5770172213550259	1.1064331974707955	0.10930308188051466	0.5663186661394919	1.1097577234526104	-0.05540661777615887	0.5874131581009642	0.5655250739784847	-0.07606240450255435	0.5816951631405869	0.8303750909123657	0.062480705102767375	0.5328796234786835	1.0199815946388806	0.1477394416504339	0.5248363460527563	1.0603779098188069	0.1495118951851369	0.5376447469670248	1.1034624881005444	0.10562455793228662	0.5836048503998861	1.1101807020980325
47	0.7833333333333333	0.21285210238173494	0.7364791042037054	1.0384199052611334	0.20991169403330306	0.922752082828127	1.4104232138081971	0.21438265386635347	1.0528759237432062	1.7473965405365055	0.17847214222932226	0.9363821525440233	1.8220079203842523	0.240342024153053	0.9468946515026785	1.8135577897514978	0.20302871504892545	1.1380275601527619	1.7817445348159529	0.021064013915568978	0.7108146146120347	1.0559137564643042	0.022121275269402517	0.9230806477846673	1.4018751224246069	0.03230418258439882	1.0795965843618147	1.7584030937366115	0.021705627681479992	0.8880997907366471	1.8106631749126068	-0.025267644908760274	0.9467172225373438	1.8047693056632257	0.05449419382857509	1.133015069980301	1.7793142526088843	0.09367553183008623	0.5201531910410174	0.5042273505093804	0.08179067600000724	0.39926638857025165	0.29286081600619523	0.08643522026815903	0.40589415744581325	0.4131088138678182	0.22927968079876085	0.5449387104802803	0.5687274236673514	0.2787953912920417	0.614637382662965	0.8080238082669495	0.16425129570584673	0.5440735007900774	1.0141222447113702	0.10056654144085878	0.5618132646282213	1.1000971975385165	0.09415599097722635	0.5766884558584857	1.10638456766974	0.10924256167970518	0.5401687007597036	1.1098368137719223	-0.05542025116816058	0.5874355843807321	0.5655391751245151	-0.07635608206146013	0.580943011030879	0.8268052455983792	0.06241716750380589	0.5326898686022183	1.0199678290415939	0.1498393871076781	0.5096219457510125	1.0574045068964324	0.14957250899049246	0.537830357701904	1.1035031599410612	0.10544661299970602	0.5830889122359594	1.1101577335362955
48	0.8	0.21277020867573118	0.736410498763408	1.0383536256756323	0.21035347319805967	0.9365981585982359	1.4082633806564433	0.21432011506459156	1.0529174927405367	1.7473828836393748	0.17847882938916043	0.9367261605231675	1.8220561311307177	0.23599331907054483	0.9323629648119628	1.81063370797683	0.20294999918584575	1.138118598434806	1.7818250013285535	0.02017180312495772	0.708030987920178	1.0515459339932725	0.021867339026849453	0.9233415423931571	1.4020941599699719	0.03706125863331535	1.0812811854079596	1.758385244388335	0.021653509925259856	0.8884396224093146	1.8105900273722306	-0.029729463977691793	0.9633300006466681	1.8083934851976005	0.054815669725882	1.133557294495811	1.7791382941493405	0.09329630236210006	0.5179107666492346	0.5009623786038647	0.08172617319447739	0.3990046825244131	0.29281845370667514	0.08670298852141467	0.40778496114283735	0.4197221868703369	0.22930593003302407	0.5450851654414602	0.568571745091584	0.28249276323025163	0.6252837311893858	0.8029157817701853	0.16447149591170926	0.5438704936027345	1.0139700096966255	0.10394022481202075	0.5609810765417548	1.09642810138283	0.09394663164589319	0.5770205218461107	1.106303389299424	0.10435495038708995	0.5368126750661641	1.1029521710557098	-0.05874912612046341	0.5744171044506725	0.5641786769856663	-0.07641706256021134	0.5815342867137792	0.8265583466465058	0.062357116926300596	0.5325275206401553	1.0199614733358116	0.14973096333102653	0.5076217856008439	1.0496539694611189	0.15336282671485535	0.5496166197869286	1.1030308416345598	0.10536407228557594	0.582812995428293	1.110042705424482
